HIERARCHY
ROOT Beta:Hips
{
	OFFSET 0.00 0.00 0.00
	CHANNELS 6 Xposition Yposition Zposition Yrotation Xrotation Zrotation
	JOINT Beta:Spine
	{
		OFFSET	0.0000	9.2263	1.5771
		CHANNELS 3 Xrotation Yrotation Zrotation
		JOINT Beta:Spine1
		{
			OFFSET	0.0000	16.2540	-0.1656
			CHANNELS 3 Xrotation Yrotation Zrotation
			JOINT Beta:Spine2
			{
				OFFSET	0.0000	13.6396	-1.2923
				CHANNELS 3 Xrotation Yrotation Zrotation
				JOINT Beta:Neck
				{
					OFFSET	0.0000	13.8774	-4.3542
					CHANNELS 3 Xrotation Yrotation Zrotation
					JOINT Beta:Neck1
					{
						OFFSET	0.0000	4.3400	0.9269
						CHANNELS 3 Xrotation Yrotation Zrotation
						JOINT Beta:Head
						{
							OFFSET	0.0000	4.0266	0.8585
							CHANNELS 3 Xrotation Yrotation Zrotation
							End Site
							{
								OFFSET 0.0000 23.0297 0.1231
							}
						}
					}
				}
				JOINT Beta:LeftShoulder
				{
					OFFSET	6.1442	10.1870	-3.7932
					CHANNELS 3 Zrotation Xrotation Yrotation
					JOINT Beta:LeftArm
					{
						OFFSET	12.3191	-1.1130	-1.7935
						CHANNELS 3 Zrotation Xrotation Yrotation
						JOINT Beta:LeftForeArm
						{
							OFFSET	27.6870	0.0000	0.0000
							CHANNELS 3 Xrotation Zrotation Yrotation
							JOINT Beta:LeftHand
							{
								OFFSET	27.8738	0.0000	0.0000
								CHANNELS 3 Zrotation Yrotation Xrotation
								JOINT Beta:LeftHandThumb1
								{
									OFFSET	2.3785	-1.0029	2.6209
									CHANNELS 3 Zrotation Xrotation Yrotation
									JOINT Beta:LeftHandThumb2
									{
										OFFSET	3.3624	-1.0029	2.8398
										CHANNELS 3 Zrotation Xrotation Yrotation
										JOINT Beta:LeftHandThumb3
										{
											OFFSET	4.5018	-1.3445	2.1783
											CHANNELS 3 Zrotation Xrotation Yrotation
											End Site
											{
												OFFSET 2.6000 -1.0000 1.0000
											}
										}
									}
								}
								JOINT Beta:LeftHandMiddle1
								{
									OFFSET	10.4639	0.6148	0.4298
									CHANNELS 3 Zrotation Xrotation Yrotation
									JOINT Beta:LeftHandMiddle2
									{
										OFFSET	5.7921	0.0000	0.0000
										CHANNELS 3 Zrotation Xrotation Yrotation
										JOINT Beta:LeftHandMiddle3
										{
											OFFSET	3.7132	0.0000	0.0000
											CHANNELS 3 Zrotation Xrotation Yrotation
											End Site
											{
												OFFSET 2.3000 0.0000 0.0000
											}
										}
									}
								}
								JOINT Beta:LeftHandIndex1
								{
									OFFSET	10.3945	0.6148	2.7055
									CHANNELS 3 Zrotation Xrotation Yrotation
									JOINT Beta:LeftHandIndex2
									{
										OFFSET	5.5493	0.0000	0.0000
										CHANNELS 3 Zrotation Xrotation Yrotation
										JOINT Beta:LeftHandIndex3
										{
											OFFSET	3.3911	0.0000	0.0000
											CHANNELS 3 Zrotation Xrotation Yrotation
											End Site
											{
												OFFSET 2.5000 0.0000 0.0000
											}
										}
									}
								}
								JOINT Beta:LeftHandRing1
								{
									OFFSET	10.3252	0.3211	-1.8755
									CHANNELS 3 Zrotation Xrotation Yrotation
									JOINT Beta:LeftHandRing2
									{
										OFFSET	5.4452	0.0000	0.0000
										CHANNELS 3 Zrotation Xrotation Yrotation
										JOINT Beta:LeftHandRing3
										{
											OFFSET	3.7132	0.0000	0.0000
											CHANNELS 3 Zrotation Xrotation Yrotation
											End Site
											{
												OFFSET 2.0000 0.0000 0.0000
											}
										}
									}
								}
								JOINT Beta:LeftHandPinky1
								{
									OFFSET	10.0130	-0.0783	-3.9671
									CHANNELS 3 Zrotation Xrotation Yrotation
									JOINT Beta:LeftHandPinky2
									{
										OFFSET	3.6763	0.0000	0.0000
										CHANNELS 3 Zrotation Xrotation Yrotation
										JOINT Beta:LeftHandPinky3
										{
											OFFSET	2.8113	0.0000	0.0000
											CHANNELS 3 Zrotation Xrotation Yrotation
											End Site
											{
												OFFSET 2.9000 0.0000 0.0000
											}
										}
									}
								}
							}
						}
					}
				}
				JOINT Beta:RightShoulder
				{
					OFFSET	-6.1402	10.1870	-3.7932
					CHANNELS 3 Zrotation Xrotation Yrotation
					JOINT Beta:RightArm
					{
						OFFSET	-12.3231	-1.1130	-1.7935
						CHANNELS 3 Zrotation Xrotation Yrotation
						JOINT Beta:RightForeArm
						{
							OFFSET	-27.6870	0.0000	0.0000
							CHANNELS 3 Xrotation Zrotation Yrotation
							JOINT Beta:RightHand
							{
								OFFSET	-27.8738	0.0000	0.0000
								CHANNELS 3 Zrotation Yrotation Xrotation
								JOINT Beta:RightHandThumb1
								{
									OFFSET	-2.5178	-0.9367	2.5137
									CHANNELS 3 Zrotation Xrotation Yrotation
									JOINT Beta:RightHandThumb2
									{
										OFFSET	-3.2638	-1.0870	2.9669
										CHANNELS 3 Zrotation Xrotation Yrotation
										JOINT Beta:RightHandThumb3
										{
											OFFSET	-4.4165	-1.3703	2.1350
											CHANNELS 3 Zrotation Xrotation Yrotation
											End Site
											{
												OFFSET -2.6000 -1.0000 1.0000
											}
										}
									}
								}
								JOINT Beta:RightHandIndex1
								{
									OFFSET	-10.4665	0.4896	2.7120
									CHANNELS 3 Zrotation Xrotation Yrotation
									JOINT Beta:RightHandIndex2
									{
										OFFSET	-5.3768	0.0000	0.0000
										CHANNELS 3 Zrotation Xrotation Yrotation
										JOINT Beta:RightHandIndex3
										{
											OFFSET	-3.3855	0.0000	0.0000
											CHANNELS 3 Zrotation Xrotation Yrotation
											End Site
											{
												OFFSET -2.6000 0.0000 0.0000
											}
										}
									}
								}
								JOINT Beta:RightHandMiddle1
								{
									OFFSET	-10.7596	0.4896	0.4278
									CHANNELS 3 Zrotation Xrotation Yrotation
									JOINT Beta:RightHandMiddle2
									{
										OFFSET	-5.6168	0.0000	0.0000
										CHANNELS 3 Zrotation Xrotation Yrotation
										JOINT Beta:RightHandMiddle3
										{
											OFFSET	-3.7364	0.0000	0.0000
											CHANNELS 3 Zrotation Xrotation Yrotation
											End Site
											{
												OFFSET -2.3000 0.0000 0.0000
											}
										}
									}
								}
								JOINT Beta:RightHandRing1
								{
									OFFSET	-10.4702	0.3879	-1.9363
									CHANNELS 3 Zrotation Xrotation Yrotation
									JOINT Beta:RightHandRing2
									{
										OFFSET	-5.4013	0.0000	0.0000
										CHANNELS 3 Zrotation Xrotation Yrotation
										JOINT Beta:RightHandRing3
										{
											OFFSET	-3.3916	0.0000	0.0000
											CHANNELS 3 Zrotation Xrotation Yrotation
											End Site
											{
												OFFSET -2.2000 0.0000 0.0000
											}
										}
									}
								}
								JOINT Beta:RightHandPinky1
								{
									OFFSET	-9.9715	-0.1191	-3.9540
									CHANNELS 3 Zrotation Xrotation Yrotation
									JOINT Beta:RightHandPinky2
									{
										OFFSET	-3.6528	0.0000	0.0000
										CHANNELS 3 Zrotation Xrotation Yrotation
										JOINT Beta:RightHandPinky3
										{
											OFFSET	-2.7820	0.0000	0.0000
											CHANNELS 3 Zrotation Xrotation Yrotation
											End Site
											{
												OFFSET -2.9000 0.0000 0.0000
											}
										}
									}
								}
							}
						}
					}
				}
			}
		}
	}
	JOINT Beta:LeftUpLeg
	{
		OFFSET	9.6338	-3.2733	0.0000
		CHANNELS 3 Xrotation Yrotation Zrotation
		JOINT Beta:LeftLeg
		{
			OFFSET	0.0000	-41.7300	-1.7300
			CHANNELS 3 Xrotation Yrotation Zrotation
			JOINT Beta:LeftFoot
			{
				OFFSET	0.0126	-39.1900	-0.8477
				CHANNELS 3 Xrotation Yrotation Zrotation
				JOINT Beta:LeftToeBase
				{
					OFFSET	-0.1833	-12.1931	8.2823
					CHANNELS 3 Xrotation Yrotation Zrotation
					End Site
					{
						OFFSET 0.0000 0.0000 10.1681
					}
				}
			}
		}
	}
	JOINT Beta:RightUpLeg
	{
		OFFSET	-9.6338	-3.2733	0.0000
		CHANNELS 3 Xrotation Yrotation Zrotation
		JOINT Beta:RightLeg
		{
			OFFSET	0.0000	-41.7300	-1.7300
			CHANNELS 3 Xrotation Yrotation Zrotation
			JOINT Beta:RightFoot
			{
				OFFSET	0.0126	-39.1900	-0.8477
				CHANNELS 3 Xrotation Yrotation Zrotation
				JOINT Beta:RightToeBase
				{
					OFFSET	-0.1833	-12.1931	8.2823
					CHANNELS 3 Xrotation Yrotation Zrotation
					End Site
					{
						OFFSET 0.0032 0.0000 10.1681
					}
				}
			}
		}
	}
}
MOTION
Frames: 4
Frame Time: 0.0333333
1.2651 81.2769 146.0390 16.0431 19.0016 2.5020 13.7691 -10.2168 -0.0129 1.2794 -2.7210 -0.4948 1.3056 -2.6947 -0.4922 -6.5570 -1.4403 1.1553 -0.0000 0.0000 -0.0000 -24.3176 -6.7267 10.0734 -14.5244 2.5898 -8.8154 -32.5005 -1.0936 -35.9779 -0.0000 0.0000 -83.2838 22.4302 -32.6242 13.6072 13.9430 -2.0504 3.9921 -14.9652 2.7300 12.2372 33.3155 1.6936 -38.7612 -51.4304 0.0000 -13.6121 -67.7835 0.0000 0.0000 -40.5298 -0.0000 -0.0000 -14.7262 5.2192 -10.7515 -82.9713 -0.0000 -0.0000 -32.3683 0.0000 0.0000 -53.6869 0.0000 -9.0004 -81.4434 0.0000 0.0000 -36.7878 0.0000 0.0000 -49.9775 -0.0001 -8.1887 -61.5235 0.0000 -0.0000 -41.8435 -0.0000 -0.0000 14.2089 0.8110 0.0869 57.4660 22.0613 -36.4250 0.0000 -0.0000 66.0146 3.4346 1.3186 26.1455 4.4454 -3.8478 -5.1399 8.3659 9.9834 -18.6140 7.6026 -3.8849 26.3717 56.8595 2.5553 5.9330 59.4241 -0.0000 0.0000 35.0800 0.0000 0.0000 62.1410 0.0009 10.0699 72.0042 0.0000 -0.0000 50.5857 0.0000 0.0000 77.6907 0.0006 5.8408 76.0615 0.0000 -0.0000 38.0893 0.0000 0.0000 87.3627 -2.6025 3.5140 79.5445 0.0000 -0.0000 67.8650 0.0000 0.0000 -32.7524 0.7049 6.2313 63.3074 0.9762 0.4821 -41.7770 3.1703 -3.6355 -6.3259 0.0061 -0.9006 -79.0074 -4.1493 -8.1199 137.2459 7.8127 0.2630 -5.0606 -0.3273 5.5537 0.7017 -0.0000 -0.0000 
1.1333 82.9235 160.8496 13.6689 20.0408 -1.1952 13.1167 -13.5212 4.2616 0.8868 -3.8769 0.0153 0.9070 -3.8631 0.0042 -6.4556 -0.7279 1.6667 -0.0000 0.0000 -0.0000 -22.8786 1.0353 10.4714 -11.9042 1.9960 -7.1995 -31.1854 -8.2814 -34.5569 0.0000 -0.0002 -93.7033 27.2977 -32.1684 11.9218 13.9430 -2.0504 3.9921 -15.9158 2.5633 14.2565 32.5971 1.8990 -38.3390 -50.0280 0.0001 -13.7252 -67.1537 0.0000 -0.0000 -39.8494 0.0000 0.0000 -12.6707 5.2478 -10.7296 -83.1008 0.0000 -0.0000 -32.3167 0.0000 0.0000 -52.2600 -0.0004 -8.7521 -79.6248 0.0000 -0.0000 -36.0477 0.0000 -0.0000 -49.7511 -0.0001 -6.9114 -60.1038 -0.0000 -0.0000 -40.5809 0.0000 0.0000 10.1053 0.8299 0.5215 56.5794 29.6301 -46.5173 0.0000 -0.0000 75.5249 2.7815 -1.0511 17.8059 4.4454 -3.8478 -5.1399 8.1576 9.9744 -18.2254 9.9931 -4.6471 24.6663 58.7902 2.8231 6.5328 59.8182 0.0000 -0.0000 35.0021 0.0000 -0.0000 63.6855 -0.0001 10.2870 71.9259 0.0000 -0.0000 50.4599 0.0000 -0.0000 78.4286 -0.0000 5.7888 76.0070 -0.0000 -0.0000 38.0269 0.0000 0.0000 87.7464 -2.6768 3.4507 79.3948 -0.0000 -0.0000 67.9450 0.0000 -0.0000 -19.0129 2.0806 11.6510 48.8499 -0.6223 2.3944 -26.4784 3.2176 -7.7243 -21.6672 0.0351 -2.1617 -89.7297 -2.6410 -4.8862 124.9605 3.5061 0.6046 -7.3308 -0.3624 5.2356 1.6746 -0.0000 0.0000 
1.0909 84.4441 175.8916 6.6572 21.1292 -6.3059 12.2103 -13.6557 7.8811 0.7557 -4.1463 0.4273 0.7617 -4.1464 0.4040 -6.2826 -0.2774 2.2300 -0.0000 0.0000 -0.0000 -20.7052 8.3743 9.8750 -10.1203 1.3980 -4.6799 -30.1546 -13.6196 -30.4496 -0.0000 0.0000 -102.4883 28.9177 -30.9487 11.1564 13.9429 -2.0504 3.9921 -15.0585 2.7278 12.4268 31.7886 2.0944 -37.9537 -47.9560 -0.0001 -13.8027 -66.3663 -0.0000 -0.0000 -39.2311 0.0000 0.0000 -9.9866 5.2877 -10.9419 -83.2381 0.0000 -0.0000 -32.3216 0.0000 -0.0000 -50.5220 -0.0004 -8.3091 -77.3023 0.0000 -0.0000 -35.0560 0.0000 -0.0000 -49.7254 -0.0785 -5.6884 -58.4302 0.0000 -0.0000 -39.1644 -0.0000 -0.0000 7.9256 1.4406 4.5452 53.5231 32.5952 -55.5706 0.0000 0.0000 85.4485 1.9303 -4.1481 11.0142 4.4454 -3.8478 -5.1399 8.7773 9.9770 -19.4000 9.9527 -4.5870 24.7919 57.8389 2.8661 6.6945 59.8619 0.0000 -0.0000 35.0583 0.0000 -0.0000 63.2863 0.0003 11.5269 72.3934 -0.0000 -0.0000 50.5547 0.0000 0.0000 78.6605 -0.0000 5.9202 75.5288 -0.0000 -0.0000 37.8156 0.0000 -0.0000 88.1027 -2.6196 3.5194 78.4258 -0.0000 0.0000 67.4966 -0.0000 -0.0000 -5.5969 6.7508 15.3170 31.1167 0.8022 2.9577 -1.5501 0.7415 -9.9583 -33.7276 0.0616 -2.8459 -94.4930 -2.7685 0.4792 107.3632 4.3377 1.6852 -7.4294 -0.3356 4.9714 1.2973 -0.0000 -0.0000 
1.0607 85.7076 190.8863 -1.2779 21.5566 -9.9529 11.5022 -11.8368 9.1454 0.9574 -3.7142 0.7033 0.9545 -3.7142 0.6962 -6.2960 -0.0179 2.4914 -0.0000 0.0000 -0.0000 -20.7738 13.4026 9.1901 -9.8731 0.9092 -1.8698 -29.0122 -14.7188 -27.0823 -0.0000 0.0000 -106.9195 28.3881 -29.4121 10.6461 13.9430 -2.0504 3.9921 -16.1033 2.5332 14.6703 31.1641 2.2672 -37.5617 -46.2031 -0.0002 -13.5403 -66.1827 0.0000 -0.0000 -39.1453 0.0000 0.0000 -8.4841 5.3014 -11.3593 -83.3360 -0.0000 0.0000 -32.3181 0.0000 0.0000 -49.8599 0.0001 -7.6816 -76.1051 0.0000 -0.0000 -34.8117 0.0000 -0.0000 -50.5455 -0.1811 -5.3994 -57.5576 -0.0000 -0.0000 -38.6269 -0.0000 0.0000 7.2552 2.2092 8.5908 49.2531 29.1416 -58.7084 0.0000 0.0002 90.9089 0.5987 -5.4118 8.2085 4.4454 -3.8478 -5.1399 9.3401 9.8641 -20.4621 9.0283 -4.1490 25.5082 57.2935 2.6469 6.3373 58.8066 0.0000 0.0000 34.9224 0.0000 -0.0000 62.4500 -0.0015 11.9767 72.6103 -0.0000 -0.0000 50.4557 0.0000 -0.0000 78.8172 -0.0002 6.2892 73.7788 0.0000 -0.0000 37.6050 -0.0000 -0.0000 87.9183 -2.5123 3.6367 77.2324 0.0000 0.0000 66.8414 0.0000 -0.0000 3.1866 9.6973 13.8977 25.0786 1.5163 2.8676 10.4483 -1.4566 -9.6759 -8.1744 0.0000 -0.0000 -92.9787 -3.1211 5.5623 85.9951 4.6109 2.6866 -7.1052 -0.4124 6.5882 1.5933 -0.0000 0.0000 
